<?xml version="1.0" standalone="no"?>
<!DOCTYPE svg PUBLIC "-//W3C//DTD SVG 20010904//EN"
 "http://www.w3.org/TR/2001/REC-SVG-20010904/DTD/svg10.dtd">
<svg version="1.0" xmlns="http://www.w3.org/2000/svg"
 width="170.000000px" height="300.000000px" viewBox="0 0 170.000000 300.000000"
 preserveAspectRatio="xMidYMid meet">
<metadata>
Created by potrace 1.16, written by Peter Selinger 2001-2019
</metadata>
<g transform="translate(0.000000,300.000000) scale(0.100000,-0.100000)"
fill="#000000" stroke="none">
<path d="M58 2974 c-39 -21 -48 -43 -48 -124 0 -82 9 -104 50 -125 44 -23
1536 -23 1580 0 41 21 50 43 50 125 0 82 -9 104 -50 125 -43 22 -1541 22
-1582 -1z"/>
<path d="M58 2674 c-39 -21 -48 -43 -48 -124 0 -82 9 -104 50 -125 44 -23
1536 -23 1580 0 41 21 50 43 50 125 0 82 -9 104 -50 125 -43 22 -1541 22
-1582 -1z"/>
<path d="M58 2374 c-39 -21 -48 -43 -48 -124 0 -82 9 -104 50 -125 44 -23
1536 -23 1580 0 41 21 50 43 50 125 0 82 -9 104 -50 125 -43 22 -1541 22
-1582 -1z"/>
<path d="M58 2074 c-39 -21 -48 -43 -48 -124 0 -82 9 -104 50 -125 44 -23
1536 -23 1580 0 41 21 50 43 50 125 0 82 -9 104 -50 125 -43 22 -1541 22
-1582 -1z"/>
<path d="M58 1774 c-39 -21 -48 -43 -48 -124 0 -82 9 -104 50 -125 44 -23
1536 -23 1580 0 41 21 50 43 50 125 0 82 -9 104 -50 125 -43 22 -1541 22
-1582 -1z"/>
<path d="M58 1474 c-39 -21 -48 -43 -48 -124 0 -82 9 -104 50 -125 44 -23
1536 -23 1580 0 41 21 50 43 50 125 0 82 -9 104 -50 125 -43 22 -1541 22
-1582 -1z"/>
<path d="M58 1174 c-39 -21 -48 -43 -48 -124 0 -82 9 -104 50 -125 44 -23
1536 -23 1580 0 41 21 50 43 50 125 0 82 -9 104 -50 125 -43 22 -1541 22
-1582 -1z"/>
<path d="M58 874 c-39 -21 -48 -43 -48 -124 0 -82 9 -104 50 -125 44 -23 1536
-23 1580 0 41 21 50 43 50 125 0 82 -9 104 -50 125 -43 22 -1541 22 -1582 -1z"/>
<path d="M58 574 c-39 -21 -48 -43 -48 -124 0 -82 9 -104 50 -125 44 -23 1536
-23 1580 0 41 21 50 43 50 125 0 82 -9 104 -50 125 -43 22 -1541 22 -1582 -1z"/>
<path d="M58 274 c-39 -21 -48 -43 -48 -124 0 -82 9 -104 50 -125 44 -23 1536
-23 1580 0 41 21 50 43 50 125 0 82 -9 104 -50 125 -43 22 -1541 22 -1582 -1z"/>
</g>
</svg>
